# xmcd
#
# Track frame offsets: 
#        151
#        12238
#        21933
#        37396
#
# Disc length: 723 seconds
#
# Revision: 0
# Processed by: cddbd v1.5.2PL0 Copyright (c) Steve Scherf et al.
# Submitted via: ExactAudioCopy v0.99pb3
#
DISCID=2e02d104
DTITLE=John Beauchamp and The Duqaines - John Beauchamp and The Duqain
DTITLE=es EP
DYEAR=1900
DGENRE=Country
TTITLE0=Early In The Morning
TTITLE1=Last Time I'm Over YOu
TTITLE2=Anymore
TTITLE3=24 Hours
EXTD=
EXTT0=
EXTT1=
EXTT2=
EXTT3=
PLAYORDER=
